<?xml version="1.0"?>
<svg
	xmlns="http://www.w3.org/2000/svg"
	xmlns:xlink="http://www.w3.org/1999/xlink"
	xmlnsSvgjs="http://svgjs.com/svgjs"
	version="1.1"
	width="512"
	height="512"
	x="0"
	y="0"
	viewBox="0 0 24 24"
	style="enable-background: new 0 0 512 512"
	xml:space="preserve">
	<g>
		<path
			xmlns="http://www.w3.org/2000/svg"
			d="m17.5 11c-3.584 0-6.5 2.916-6.5 6.5s2.916 6.5 6.5 6.5 6.5-2.916 6.5-6.5-2.916-6.5-6.5-6.5zm0 1.5c1.108 0 2.123.374 2.953.987l-6.967 6.966c-.612-.83-.986-1.845-.986-2.953 0-2.757 2.243-5 5-5zm0 10c-1.108 0-2.123-.374-2.953-.987l6.967-6.966c.612.83.986 1.845.986 2.953 0 2.757-2.243 5-5 5z"
			fill="#44c716"
			data-original="#000000" />
		<path
			xmlns="http://www.w3.org/2000/svg"
			d="m8.84 15h-4.09c-.414 0-.75-.336-.75-.75s.336-.75.75-.75h4.09c.414 0 .75.336.75.75s-.336.75-.75.75z"
			fill="#44c716"
			data-original="#000000" />
		<path
			xmlns="http://www.w3.org/2000/svg"
			d="m8.25 18h-3.5c-.414 0-.75-.336-.75-.75s.336-.75.75-.75h3.5c.414 0 .75.336.75.75s-.336.75-.75.75z"
			fill="#44c716"
			data-original="#000000" />
		<path
			xmlns="http://www.w3.org/2000/svg"
			d="m8.25 21h-5.5c-1.517 0-2.75-1.233-2.75-2.75v-15.5c0-1.517 1.233-2.75 2.75-2.75h11.5c1.517 0 2.75 1.233 2.75 2.75v5.56c0 .414-.336.75-.75.75s-.75-.336-.75-.75v-5.56c0-.689-.561-1.25-1.25-1.25h-11.5c-.689 0-1.25.561-1.25 1.25v15.5c0 .689.561 1.25 1.25 1.25h5.5c.414 0 .75.336.75.75s-.336.75-.75.75z"
			fill="#44c716"
			data-original="#000000" />
		<circle
			xmlns="http://www.w3.org/2000/svg"
			cx="8.5"
			cy="5"
			r="2"
			fill="#44c716"
			data-original="#000000" />
		<path
			xmlns="http://www.w3.org/2000/svg"
			d="m11.75 12h-6.5c-.414 0-.75-.336-.75-.75v-.5c0-1.517 1.233-2.75 2.75-2.75h2.5c1.517 0 2.75 1.233 2.75 2.75v.5c0 .414-.336.75-.75.75z"
			fill="#44c716"
			data-original="#000000" />
	</g>
</svg>
