<svg
	width="58"
	height="45"
	viewBox="0 0 58 45"
	fill="none"
	xmlns="http://www.w3.org/2000/svg">
	<g clip-path="url(#clip0)">
		<path
			d="M22.8776 44.569C26.6016 44.569 29.6205 42.2101 29.6205 39.3003C29.6205 36.3904 26.6016 34.0316 22.8776 34.0316C19.1537 34.0316 16.1348 36.3904 16.1348 39.3003C16.1348 42.2101 19.1537 44.569 22.8776 44.569Z"
			fill="#3C3322" />
		<path
			d="M42.5559 34.0317C38.8319 34.0317 35.813 36.3906 35.813 39.3004C35.813 42.2101 38.8319 44.5691 42.5559 44.5691C46.2798 44.5691 49.2987 42.2101 49.2987 39.3004C49.2987 36.3906 46.2798 34.0317 42.5559 34.0317Z"
			fill="#3C3322" />
		<path
			d="M54.0463 28.6553H18.887L18.199 25.5371H47.097C47.9471 25.5391 48.7119 25.1336 49.0235 24.5156L55.904 10.9676C56.3221 10.1389 55.8011 9.20224 54.7405 8.87568C54.4975 8.80081 54.2386 8.76269 53.9775 8.76332H14.6211L12.9698 1.34414C12.8002 0.559652 11.9237 -0.0110467 10.9057 8.37249e-05H2.9931C1.85312 8.37249e-05 0.928955 0.722198 0.928955 1.61295C0.928955 2.5037 1.85312 3.22582 2.9931 3.22582H9.18553L15.1027 30.537C15.2723 31.3215 16.1488 31.8922 17.1669 31.8811H54.0463C55.1863 31.8811 56.1104 31.159 56.1104 30.2682C56.1104 29.3775 55.1863 28.6553 54.0463 28.6553Z"
			fill="#3C3322" />
	</g>
	<defs>
		<clipPath id="clip0">
			<rect width="57.0393" height="44.569" fill="white" />
		</clipPath>
	</defs>
</svg>
