<svg
	width="160"
	height="160"
	viewBox="0 0 160 160"
	fill="none"
	xmlns="http://www.w3.org/2000/svg">
	<path
		d="M75.1969 10.7692C89.76 10.8431 103.572 15.7415 114.892 24.6154H95.3846C93.6862 24.6154 92.3077 25.9908 92.3077 27.6923C92.3077 29.3938 93.6862 30.7692 95.3846 30.7692H123.077C123.477 30.7692 123.877 30.6862 124.252 30.5323C125.006 30.2215 125.606 29.6215 125.917 28.8677C126.071 28.4923 126.154 28.0923 126.154 27.6923V3.07692C126.154 1.37538 124.775 0 123.077 0C121.378 0 120 1.37538 120 3.07692V20.7538C107.382 10.3846 91.7292 4.69538 75.2277 4.61539C75.1046 4.61539 74.9846 4.61539 74.8646 4.61539C56.0708 4.61539 38.4339 11.9077 25.1692 25.1723C-1.01844 51.36 -2.28306 93.8123 22.2923 121.812C22.9016 122.508 23.7508 122.862 24.6062 122.862C25.3262 122.862 26.0492 122.609 26.6339 122.098C27.9108 120.978 28.0369 119.034 26.9169 117.757C4.47386 92.1815 5.61848 53.4246 29.52 29.5231C41.6985 17.3446 57.9016 10.7877 75.1969 10.7692Z"
		fill="black" />
	<path
		d="M137.686 38.163C136.566 36.8922 134.618 36.763 133.345 37.883C132.068 39.003 131.942 40.9476 133.062 42.2245C155.523 67.7999 154.388 106.563 130.477 130.477C118.298 142.655 102.117 149.348 84.8 149.231C70.237 149.157 56.4247 144.258 45.1047 135.384H64.6154C66.3139 135.384 67.6923 134.009 67.6923 132.308C67.6923 130.606 66.3139 129.231 64.6154 129.231H36.9231C36.5231 129.231 36.1231 129.311 35.7477 129.468C34.9939 129.778 34.3939 130.378 34.0831 131.132C33.9262 131.508 33.8462 131.908 33.8462 132.308V156.923C33.8462 158.624 35.2247 160 36.9231 160C38.6216 160 40 158.624 40 156.923V139.246C52.6185 149.615 68.2708 155.304 84.7723 155.384C84.8954 155.384 85.0154 155.384 85.1354 155.384C103.929 155.384 121.566 148.092 134.831 134.828C161.028 108.631 162.283 66.1722 137.686 38.163Z"
		fill="black" />
	<g clip-path="url(#clip0)">
		<path
			d="M113.6 40H33.6V120H129.6V40H113.6ZM46.4 116.8H36.8V107.2H46.4V116.8ZM46.4 104H36.8V94.4H46.4V104ZM46.4 91.2H36.8V81.6H46.4V91.2ZM46.4 78.4H36.8V68.8H46.4V78.4ZM46.4 65.6H36.8V56H46.4V65.6ZM46.4 52.8H36.8V43.2H46.4V52.8ZM113.6 116.8H49.6V43.2H113.6V116.8ZM126.4 116.8H116.8V107.2H126.4V116.8ZM126.4 104H116.8V94.4H126.4V104ZM126.4 91.2H116.8V81.6H126.4V91.2ZM126.4 78.4H116.8V68.8H126.4V78.4ZM126.4 65.6H116.8V56H126.4V65.6ZM126.4 52.8H116.8V43.2H126.4V52.8Z"
			fill="black" />
		<path
			d="M94.1943 79.2006C94.0527 78.953 93.8475 78.748 93.6001 78.6064L71.2001 65.8064C70.4349 65.3646 69.4563 65.6268 69.0145 66.392C68.8727 66.6376 68.7987 66.9164 68.8001 67.2V92.8C68.8007 93.371 69.1055 93.8984 69.6001 94.184C70.0951 94.4698 70.7051 94.4698 71.2001 94.184L93.6001 81.384C94.3671 80.9452 94.6331 79.9678 94.1943 79.2006ZM72.0001 90.0416V69.9584L89.5745 80L72.0001 90.0416Z"
			fill="black" />
	</g>
	<defs>
		<clipPath id="clip0">
			<rect
				width="96"
				height="96"
				fill="white"
				transform="translate(33.6 32)" />
		</clipPath>
	</defs>
</svg>
