<svg width="53" height="47" viewBox="0 0 53 47" fill="none" xmlns="http://www.w3.org/2000/svg">
<g clip-path="url(#clip0)">
<path d="M26.5183 22.64C29.974 22.64 32.9664 21.5245 35.4114 19.3235C37.8564 17.1229 39.0958 14.4303 39.0958 11.3197C39.0958 8.21005 37.8564 5.51711 35.411 3.31579C32.9656 1.11554 29.9736 0 26.5183 0C23.0622 0 20.0706 1.11554 17.6256 3.31615C15.1806 5.51675 13.9408 8.20969 13.9408 11.3197C13.9408 14.4303 15.1806 17.1233 17.626 19.3239C20.0714 21.5241 23.0634 22.64 26.5183 22.64Z" fill="#3C3322"/>
<path d="M48.5255 36.1406C48.455 35.2248 48.3124 34.2258 48.1024 33.1708C47.8905 32.108 47.6176 31.1032 47.2909 30.1849C46.9534 29.2358 46.4945 28.2984 45.9272 27.4002C45.3383 26.4679 44.6467 25.656 43.8706 24.988C43.0591 24.2891 42.0655 23.7272 40.9165 23.3174C39.7715 22.9097 38.5026 22.7031 37.1452 22.7031C36.6122 22.7031 36.0966 22.9 35.101 23.4834C34.4883 23.8431 33.7716 24.259 32.9716 24.7191C32.2875 25.1114 31.3609 25.4789 30.2162 25.8117C29.0995 26.1369 27.9657 26.3019 26.8466 26.3019C25.7275 26.3019 24.594 26.1369 23.4761 25.8117C22.3327 25.4793 21.406 25.1117 20.7228 24.7194C19.9304 24.2637 19.2132 23.8477 18.5913 23.4831C17.5969 22.8996 17.081 22.7028 16.5479 22.7028C15.1902 22.7028 13.9217 22.9097 12.7771 23.3177C11.6289 23.7269 10.6349 24.2888 9.82255 24.9884C9.04686 25.6568 8.35484 26.4682 7.7668 27.4002C7.19988 28.2984 6.74092 29.2354 6.40308 30.1853C6.07679 31.1036 5.80388 32.108 5.59193 33.1708C5.38198 34.2243 5.23935 35.2237 5.16883 36.1416C5.09951 37.041 5.06445 37.9744 5.06445 38.9171C5.06445 41.3705 5.93097 43.3566 7.63971 44.8214C9.32733 46.2669 11.5604 47.0002 14.2759 47.0002H39.4197C42.1352 47.0002 44.3674 46.2672 46.0554 44.8214C47.7646 43.3577 48.6311 41.3712 48.6311 38.9167C48.6307 37.9697 48.5952 37.0356 48.5255 36.1406Z" fill="#3C3322"/>
</g>
<defs>
<clipPath id="clip0">
<rect width="52.2191" height="47" fill="white" transform="translate(0.780884)"/>
</clipPath>
</defs>
</svg>
