<svg
	width="16"
	height="16"
	viewBox="0 0 16 16"
	fill="none"
	xmlns="http://www.w3.org/2000/svg">
	<path
		d="M8 16C12.4183 16 16 12.4183 16 8C16 3.58172 12.4183 0 8 0C3.58172 0 0 3.58172 0 8C0 12.4183 3.58172 16 8 16Z"
		fill="#44C716" />
	<path
		d="M13.2141 9.89458L12.2934 12.5372C11.8927 13.6865 10.8086 14.4569 9.59137 14.4569H6.40862C5.19134 14.4569 4.10731 13.6865 3.70656 12.5372L2.78584 9.89458C2.49543 9.06164 2.60546 8.14161 3.08409 7.40058L4.36637 4.93083C4.56112 4.62948 4.69743 4.29433 4.76815 3.9428L4.88227 3.37464C5.01652 2.70639 5.37731 2.13242 5.87474 1.72483C6.37218 1.31761 7.31874 1.07745 7.99999 1.07745C9.3628 1.07745 10.8489 2.03848 11.1177 3.37467L11.2319 3.94283C11.3026 4.29439 11.4389 4.62952 11.6336 4.93086L12.9159 7.40061C13.3946 8.14161 13.5046 9.06167 13.2141 9.89458V9.89458Z"
		fill="#2D2C33" />
	<path
		d="M13.2142 9.89458L12.2934 12.5372C11.8927 13.6865 10.8087 14.4569 9.59138 14.4569H8V1.07745C9.36282 1.07745 10.8489 2.03848 11.1178 3.37467L11.2319 3.94283C11.3026 4.29439 11.4389 4.62952 11.6337 4.93086L12.916 7.40061C13.3946 8.14161 13.5046 9.06167 13.2142 9.89458V9.89458Z"
		fill="#2E3140" />
	<path
		d="M10.1562 12.6628L10.2386 11.7763C10.2976 11.1409 10.6995 10.5887 11.286 10.3373L11.4483 10.2677C11.8333 10.1026 12.2331 10.4687 12.1025 10.8667L11.6091 12.3702C11.4814 12.7593 11.1701 13.0604 10.7771 13.175C10.4474 13.2712 10.1245 13.0048 10.1562 12.6628Z"
		fill="#334353" />
	<path
		d="M5.84375 12.6628L5.76143 11.7763C5.70243 11.1409 5.30053 10.5887 4.71403 10.3373L4.55165 10.2677C4.16668 10.1026 3.76687 10.4687 3.89749 10.8667L4.3909 12.3702C4.51856 12.7593 4.82984 13.0604 5.2229 13.175C5.55256 13.2712 5.8755 13.0048 5.84375 12.6628Z"
		fill="#2E3140" />
	<path
		d="M8 1.93115C8 1.93115 8.84194 1.98734 9.11181 2.06143C9.78496 2.24621 10.2151 2.91453 10.3675 3.59578L10.545 4.38878C10.6427 4.82584 10.3103 5.24093 9.8624 5.24093H8V1.93115Z"
		fill="#334353" />
	<path
		d="M7.99999 1.93115C7.99999 1.93115 7.15805 1.98734 6.88818 2.06143C6.21502 2.24621 5.78487 2.91453 5.63246 3.59578L5.45503 4.38878C5.35725 4.82584 5.68971 5.24093 6.13759 5.24093H7.99999V1.93115Z"
		fill="#2E3140" />
	<path
		d="M11.4387 8.39705C11.4387 9.07367 11.0965 9.67042 10.5761 10.0239C9.98249 10.427 9.61505 11.0873 9.61505 11.8046V12.4108C9.61505 12.8568 9.43449 13.2608 9.14199 13.5533C8.84949 13.8453 8.44596 14.0263 7.99999 14.0263C7.10805 14.0263 6.38492 13.3028 6.38492 12.4108V11.8046C6.38492 11.0873 6.01748 10.427 5.42392 10.0239C5.16348 9.84736 4.94817 9.60948 4.79739 9.33189C4.64708 9.05383 4.56133 8.73517 4.56133 8.39708C4.56133 7.31105 5.44155 6.43039 6.52758 6.43039H9.47243C10.0155 6.43039 10.507 6.65067 10.8627 7.00636C11.2184 7.36248 11.4387 7.85405 11.4387 8.39705Z"
		fill="#334353" />
	<path
		d="M11.4388 8.39717C11.4388 9.07373 11.0966 9.6703 10.5759 10.0237C9.9825 10.4269 9.615 11.0872 9.615 11.8047V12.4109C9.615 12.8569 9.43438 13.2606 9.14188 13.5531C8.84938 13.8453 8.44594 14.0262 8 14.0262V6.4303H9.4725C10.0153 6.4303 10.5069 6.65061 10.8628 7.00624C11.2184 7.36249 11.4388 7.85405 11.4388 8.39717Z"
		fill="#3E4E60" />
	<path
		d="M8 11.66C8.39409 11.6821 8.76056 11.8693 9.00934 12.1758L9.55509 12.848L8 13.2414V11.66Z"
		fill="#3F5D77" />
	<path
		d="M7.99999 11.66C7.6059 11.6821 7.23943 11.8693 6.99065 12.1758L6.4449 12.848L7.99999 13.2414V11.66Z"
		fill="#3E4E60" />
	<path
		d="M7.99998 13.3511C7.66963 13.3511 7.35726 13.2346 7.08163 13.1319C6.88498 13.0586 6.69919 12.9893 6.5391 12.9738C6.45319 12.9654 6.39035 12.8891 6.39869 12.8031C6.40704 12.7172 6.48354 12.6545 6.56932 12.6627C6.7701 12.6822 6.97444 12.7584 7.19082 12.8391C7.45391 12.9372 7.72601 13.0386 8.00001 13.0386C8.2741 13.0386 8.54626 12.9372 8.80948 12.8391C9.02585 12.7584 9.2302 12.6822 9.43098 12.6627C9.51701 12.6541 9.59326 12.7172 9.60161 12.8031C9.60995 12.889 9.54711 12.9654 9.4612 12.9737C9.30107 12.9893 9.11529 13.0586 8.9186 13.1319C8.64288 13.2346 8.33042 13.3511 7.99998 13.3511Z"
		fill="#2D2C33" />
	<path
		d="M10.0029 7.71132H8.88047C8.67063 7.71132 8.50053 7.54123 8.50053 7.33138C8.50053 7.12154 8.67063 6.95145 8.88047 6.95145H10.0029C10.2127 6.95145 10.3828 7.12154 10.3828 7.33138C10.3828 7.5412 10.2127 7.71132 10.0029 7.71132Z"
		fill="#3F5D77" />
	<path
		d="M7.11953 7.71132H5.99713C5.78728 7.71132 5.61719 7.54123 5.61719 7.33138C5.61719 7.12154 5.78728 6.95145 5.99713 6.95145H7.11953C7.32937 6.95145 7.49947 7.12154 7.49947 7.33138C7.49947 7.5412 7.32934 7.71132 7.11953 7.71132Z"
		fill="#3E4E60" />
	<path
		d="M8 9.44733H5.70211C5.46036 9.44733 5.26436 9.25137 5.26436 9.00958V8.68258C5.26436 8.14618 5.6992 7.71133 6.23561 7.71133H6.60587H8V9.44733Z"
		fill="#2E3140" />
	<path
		d="M8 9.44733H10.2979C10.5396 9.44733 10.7356 9.25137 10.7356 9.00958V8.68258C10.7356 8.14618 10.3008 7.71133 9.76437 7.71133H9.39412H8V9.44733Z"
		fill="#334353" />
	<path
		d="M9.36365 8.10485L8.96291 8.221C8.70791 8.29491 8.56109 8.56153 8.635 8.81653C8.70891 9.07153 8.97553 9.21835 9.23053 9.14444L9.63128 9.02828C9.88628 8.95438 10.0331 8.68775 9.95918 8.43275C9.88528 8.17775 9.61865 8.03094 9.36365 8.10485Z"
		fill="#44C716" />
	<path
		d="M9.72513 8.62469C9.72513 8.72281 9.69201 8.81375 9.63607 8.88594C9.55794 8.98719 9.43513 9.05281 9.29701 9.05281C9.06076 9.05281 8.86888 8.86094 8.86888 8.62469C8.86888 8.43125 8.99732 8.26781 9.17357 8.21469C9.21263 8.20281 9.25419 8.19656 9.29701 8.19656C9.53357 8.19656 9.72513 8.38813 9.72513 8.62469V8.62469Z"
		fill="#3E4E60" />
	<path
		d="M9.72512 8.62469C9.72512 8.72281 9.692 8.81375 9.63606 8.88594C9.59668 8.89813 9.55512 8.90438 9.512 8.90438C9.27575 8.90438 9.08418 8.7125 9.08418 8.47625C9.08418 8.37781 9.11731 8.28719 9.17356 8.21469C9.21262 8.20281 9.25418 8.19656 9.297 8.19656C9.53356 8.19656 9.72512 8.38813 9.72512 8.62469V8.62469Z"
		fill="#2E3140" />
	<path
		d="M9.60938 8.62465C9.72243 8.62465 9.81407 8.533 9.81407 8.41996C9.81407 8.30691 9.72243 8.21527 9.60938 8.21527C9.49633 8.21527 9.40469 8.30691 9.40469 8.41996C9.40469 8.533 9.49633 8.62465 9.60938 8.62465Z"
		fill="white" />
	<path
		d="M6.63633 8.10485L7.03708 8.221C7.29208 8.29491 7.4389 8.56153 7.36499 8.81653C7.29108 9.07153 7.02446 9.21835 6.76946 9.14444L6.3687 9.02828C6.1137 8.95438 5.96689 8.68775 6.04079 8.43275C6.1147 8.17775 6.38133 8.03094 6.63633 8.10485Z"
		fill="#44C716" />
	<path
		d="M6.27486 8.62469C6.27486 8.72281 6.30798 8.81375 6.36392 8.88594C6.44204 8.98719 6.56486 9.05281 6.70298 9.05281C6.93923 9.05281 7.13111 8.86094 7.13111 8.62469C7.13111 8.43125 7.00267 8.26781 6.82642 8.21469C6.78736 8.20281 6.74579 8.19656 6.70298 8.19656C6.46642 8.19656 6.27486 8.38813 6.27486 8.62469Z"
		fill="#3E4E60" />
	<path
		d="M6.27486 8.62469C6.27486 8.72281 6.30798 8.81375 6.36392 8.88594C6.4033 8.89813 6.44486 8.90438 6.48799 8.90438C6.72424 8.90438 6.91581 8.7125 6.91581 8.47625C6.91581 8.37781 6.88268 8.28719 6.82643 8.21469C6.78737 8.20281 6.7458 8.19656 6.70299 8.19656C6.46642 8.19656 6.27486 8.38813 6.27486 8.62469Z"
		fill="#2E3140" />
	<path
		d="M6.85284 8.62101C6.96588 8.62101 7.05752 8.52937 7.05752 8.41633C7.05752 8.30328 6.96588 8.21164 6.85284 8.21164C6.73979 8.21164 6.64815 8.30328 6.64815 8.41633C6.64815 8.52937 6.73979 8.62101 6.85284 8.62101Z"
		fill="white" />
	<path
		d="M8 11.1416V11.66C7.99031 11.6722 7.98 11.6837 7.96906 11.6947C7.80656 11.8572 7.54343 11.8572 7.38125 11.6947L7.24875 11.5622L6.93687 11.2506C6.77468 11.0881 6.77468 10.825 6.93687 10.6628C7.01812 10.5815 7.12437 10.5409 7.23093 10.5409C7.3375 10.5409 7.44375 10.5815 7.525 10.6628L7.96906 11.1069C7.98 11.1181 7.99031 11.1297 8 11.1416V11.1416Z"
		fill="#2D2C33" />
	<path
		d="M9.06311 11.2506L8.61874 11.6947C8.45656 11.8572 8.19343 11.8572 8.03094 11.6947C8.02 11.6837 8.00969 11.6722 8 11.66V11.1416C8.00969 11.1297 8.02 11.1181 8.03094 11.1069L8.47499 10.6628C8.55624 10.5815 8.66249 10.5409 8.76905 10.5409C8.87561 10.5409 8.98186 10.5815 9.06311 10.6628C9.2253 10.825 9.2253 11.0881 9.06311 11.2506Z"
		fill="#2E3140" />
	<path
		d="M8.38345 10.4013C8.3132 10.4013 8.24374 10.3699 8.19755 10.3099C8.11861 10.2073 8.13774 10.0601 8.24033 9.9812C8.71242 9.61787 9.07745 9.77927 9.31092 9.93227C9.41917 10.0032 9.44942 10.1485 9.37848 10.2568C9.30751 10.365 9.16223 10.3952 9.05398 10.3243C8.89383 10.2194 8.77052 10.1646 8.52627 10.3527C8.48364 10.3854 8.43333 10.4013 8.38345 10.4013Z"
		fill="#3F5D77" />
	<path
		d="M7.61652 10.4013C7.68677 10.4013 7.75624 10.3699 7.80243 10.3099C7.88137 10.2073 7.86224 10.0601 7.75965 9.9812C7.28755 9.61787 6.92251 9.77927 6.68904 9.93227C6.58079 10.0032 6.55054 10.1485 6.62148 10.2568C6.69245 10.365 6.83773 10.3952 6.94598 10.3243C7.10614 10.2194 7.22945 10.1646 7.47371 10.3527C7.51633 10.3854 7.56664 10.4013 7.61652 10.4013V10.4013Z"
		fill="#3E4E60" />
</svg>
