<?xml version="1.0" encoding="utf-8"?>
<svg xmlns="http://www.w3.org/2000/svg" xmlns:xlink="http://www.w3.org/1999/xlink" style="margin: auto; background: none; display: block; shape-rendering: auto;" width="200px" height="200px" viewBox="0 0 100 100" preserveAspectRatio="xMidYMid">
<g transform="rotate(0 50 50)">
  <rect x="47.5" y="26.5" rx="2.5" ry="7.5" width="5" height="15" fill="#fe718d">
    <animate attributeName="opacity" values="1;0" keyTimes="0;1" dur="1.2658227848101264s" begin="-1.181434599156118s" repeatCount="indefinite"></animate>
  </rect>
</g><g transform="rotate(24 50 50)">
  <rect x="47.5" y="26.5" rx="2.5" ry="7.5" width="5" height="15" fill="#f47e60">
    <animate attributeName="opacity" values="1;0" keyTimes="0;1" dur="1.2658227848101264s" begin="-1.0970464135021096s" repeatCount="indefinite"></animate>
  </rect>
</g><g transform="rotate(48 50 50)">
  <rect x="47.5" y="26.5" rx="2.5" ry="7.5" width="5" height="15" fill="#f8b26a">
    <animate attributeName="opacity" values="1;0" keyTimes="0;1" dur="1.2658227848101264s" begin="-1.0126582278481011s" repeatCount="indefinite"></animate>
  </rect>
</g><g transform="rotate(72 50 50)">
  <rect x="47.5" y="26.5" rx="2.5" ry="7.5" width="5" height="15" fill="#abbd81">
    <animate attributeName="opacity" values="1;0" keyTimes="0;1" dur="1.2658227848101264s" begin="-0.9282700421940927s" repeatCount="indefinite"></animate>
  </rect>
</g><g transform="rotate(96 50 50)">
  <rect x="47.5" y="26.5" rx="2.5" ry="7.5" width="5" height="15" fill="#849b87">
    <animate attributeName="opacity" values="1;0" keyTimes="0;1" dur="1.2658227848101264s" begin="-0.8438818565400843s" repeatCount="indefinite"></animate>
  </rect>
</g><g transform="rotate(120 50 50)">
  <rect x="47.5" y="26.5" rx="2.5" ry="7.5" width="5" height="15" fill="#6492ac">
    <animate attributeName="opacity" values="1;0" keyTimes="0;1" dur="1.2658227848101264s" begin="-0.7594936708860759s" repeatCount="indefinite"></animate>
  </rect>
</g><g transform="rotate(144 50 50)">
  <rect x="47.5" y="26.5" rx="2.5" ry="7.5" width="5" height="15" fill="#637cb5">
    <animate attributeName="opacity" values="1;0" keyTimes="0;1" dur="1.2658227848101264s" begin="-0.6751054852320675s" repeatCount="indefinite"></animate>
  </rect>
</g><g transform="rotate(168 50 50)">
  <rect x="47.5" y="26.5" rx="2.5" ry="7.5" width="5" height="15" fill="#6a63b6">
    <animate attributeName="opacity" values="1;0" keyTimes="0;1" dur="1.2658227848101264s" begin="-0.590717299578059s" repeatCount="indefinite"></animate>
  </rect>
</g><g transform="rotate(192 50 50)">
  <rect x="47.5" y="26.5" rx="2.5" ry="7.5" width="5" height="15" fill="#fe718d">
    <animate attributeName="opacity" values="1;0" keyTimes="0;1" dur="1.2658227848101264s" begin="-0.5063291139240506s" repeatCount="indefinite"></animate>
  </rect>
</g><g transform="rotate(216 50 50)">
  <rect x="47.5" y="26.5" rx="2.5" ry="7.5" width="5" height="15" fill="#f47e60">
    <animate attributeName="opacity" values="1;0" keyTimes="0;1" dur="1.2658227848101264s" begin="-0.42194092827004215s" repeatCount="indefinite"></animate>
  </rect>
</g><g transform="rotate(240 50 50)">
  <rect x="47.5" y="26.5" rx="2.5" ry="7.5" width="5" height="15" fill="#f8b26a">
    <animate attributeName="opacity" values="1;0" keyTimes="0;1" dur="1.2658227848101264s" begin="-0.33755274261603374s" repeatCount="indefinite"></animate>
  </rect>
</g><g transform="rotate(264 50 50)">
  <rect x="47.5" y="26.5" rx="2.5" ry="7.5" width="5" height="15" fill="#abbd81">
    <animate attributeName="opacity" values="1;0" keyTimes="0;1" dur="1.2658227848101264s" begin="-0.2531645569620253s" repeatCount="indefinite"></animate>
  </rect>
</g><g transform="rotate(288 50 50)">
  <rect x="47.5" y="26.5" rx="2.5" ry="7.5" width="5" height="15" fill="#849b87">
    <animate attributeName="opacity" values="1;0" keyTimes="0;1" dur="1.2658227848101264s" begin="-0.16877637130801687s" repeatCount="indefinite"></animate>
  </rect>
</g><g transform="rotate(312 50 50)">
  <rect x="47.5" y="26.5" rx="2.5" ry="7.5" width="5" height="15" fill="#6492ac">
    <animate attributeName="opacity" values="1;0" keyTimes="0;1" dur="1.2658227848101264s" begin="-0.08438818565400844s" repeatCount="indefinite"></animate>
  </rect>
</g><g transform="rotate(336 50 50)">
  <rect x="47.5" y="26.5" rx="2.5" ry="7.5" width="5" height="15" fill="#637cb5">
    <animate attributeName="opacity" values="1;0" keyTimes="0;1" dur="1.2658227848101264s" begin="0s" repeatCount="indefinite"></animate>
  </rect>
</g>
<!-- [ldio] generated by https://loading.io/ --></svg>